# xmcd
#
# Track frame offsets:
#	150
#	5550
#	28405
#	44365
#	60860
#	79207
#	81622
#	102292
#	123650
#	144270
#	164657
#	166025
#	181995
#	206582
#	208045
#	226582
#	250940
#	278362
#
# Disc length: 3978
#
# Revision: 5
# Processed by: cddbd v1.5.1PL0 Copyright (c) Steve Scherf et al.
# Submitted via: CDex 1.40Beta3
# Normalized: r4:TSWAP
#
DISCID=f10f8812
DTITLE=Various Artist - Whybs tunes
DYEAR=1900
DGENRE=Blues
TTITLE0=Sisqo - Unleash The Dragon
TTITLE1=Puff Daddy - Satisfy You
TTITLE2=SONIQUE - Sky
TTITLE3=Pink - Most Girls
TTITLE4=2 Pac - California Love
TTITLE5=Redman and Eminem - Off The Wall
TTITLE6=TQ - Westside
TTITLE7=TQ - Bye Bye Baby
TTITLE8=???
TTITLE9=???
TTITLE10=???
TTITLE11=???
TTITLE12=???
TTITLE13=???
TTITLE14=???
TTITLE15=???
TTITLE16=???
TTITLE17=???
EXTD=ID3G:   0
EXTT0=
EXTT1=
EXTT2=
EXTT3=
EXTT4=
EXTT5=
EXTT6=
EXTT7=
EXTT8=
EXTT9=
EXTT10=
EXTT11=
EXTT12=
EXTT13=
EXTT14=
EXTT15=
EXTT16=
EXTT17=
PLAYORDER=
